<?xml version="1.0" encoding="utf-8"?>
<!-- Generator: Adobe Illustrator 17.1.0, SVG Export Plug-In . SVG Version: 6.00 Build 0)  -->
<!DOCTYPE svg PUBLIC "-//W3C//DTD SVG 1.1//EN" "http://www.w3.org/Graphics/SVG/1.1/DTD/svg11.dtd">
<svg version="1.1" id="Layer_1" xmlns="http://www.w3.org/2000/svg" xmlns:xlink="http://www.w3.org/1999/xlink" x="0px" y="0px"
	 viewBox="0 0 309 284" enable-background="new 0 0 309 284" xml:space="preserve">
<g>
	<defs>
		<rect id="SVGID_1_" x="2" y="2" width="304.516" height="280"/>
	</defs>
	<clipPath id="SVGID_2_">
		<use xlink:href="#SVGID_1_"  overflow="visible"/>
	</clipPath>
	<path clip-path="url(#SVGID_2_)" fill="#FFFFFF" d="M267.579,126.386c-12.049,0-21.818,9.769-21.818,21.818
		c0,12.05,9.769,21.818,21.818,21.818c12.05,0,21.819-9.768,21.819-21.818C289.398,136.155,279.629,126.386,267.579,126.386
		 M19.117,148.204c0,12.05,9.769,21.818,21.819,21.818s21.818-9.768,21.818-21.818c0-12.049-9.768-21.818-21.818-21.818
		S19.117,136.155,19.117,148.204 M154.258,94.078c19.853,0,78.472,3.423,94.388,3.423c20.196,0,16.602-19.168,16.602-19.168
		l-3.252-21.908c-3.6-18.481-18.763-26.502-32.091-27.982c-2.31-0.257-46.21-3.338-50.318-3.338h-50.659
		c-4.108,0-48.008,3.081-50.318,3.338c-13.328,1.48-28.49,9.501-32.09,27.982l-3.252,21.908c0,0-3.595,19.168,16.601,19.168
		C75.786,97.501,134.404,94.078,154.258,94.078 M60.211,223.809v46.894c0,0-6.332,11.297-22.762,11.297
		s-24.132-10.954-24.132-10.954v-51.173C0.994,212.684,2.02,200.362,2.02,200.362v-65.55c0-22.592,21.223-23.79,21.223-23.79
		l11.638-73.081C39.673,7.305,64.319,2,74.588,2h159.339c10.269,0,34.915,5.305,39.707,35.941l11.638,73.081
		c0,0,21.223,1.198,21.223,23.79v65.55c0,0,1.026,12.322-11.296,19.511v51.173c0,0-7.702,10.954-24.132,10.954
		c-16.431,0-22.764-11.297-22.764-11.297v-46.894c0,0-65.805,3.508-94.045,3.508S60.211,223.809,60.211,223.809"/>
</g>
</svg>
