<?xml version="1.0" encoding="utf-8"?>
<!-- Generator: Adobe Illustrator 17.1.0, SVG Export Plug-In . SVG Version: 6.00 Build 0)  -->
<!DOCTYPE svg PUBLIC "-//W3C//DTD SVG 1.1//EN" "http://www.w3.org/Graphics/SVG/1.1/DTD/svg11.dtd">
<svg version="1.1" id="Layer_1" xmlns="http://www.w3.org/2000/svg" xmlns:xlink="http://www.w3.org/1999/xlink" x="0px" y="0px"
	 viewBox="0 0 244 295" enable-background="new 0 0 244 295" xml:space="preserve">
<g>
	<g>
		<defs>
			<rect id="SVGID_1_" x="2" y="2" width="240" height="291.001"/>
		</defs>
		<clipPath id="SVGID_2_">
			<use xlink:href="#SVGID_1_"  overflow="visible"/>
		</clipPath>
		
			<rect x="5.75" y="5.751" clip-path="url(#SVGID_2_)" fill="none" stroke="#FFFFFF" stroke-width="7.5" stroke-miterlimit="10" width="172.5" height="223.5"/>
	</g>
	<polygon fill="#FFFFFF" points="32,263.001 32,233.001 40,233.001 40,255.001 204,255.001 204,40.001 182,40.001 182,32.001 
		212,32.001 212,263.001 	"/>
	<polygon fill="#FFFFFF" points="212,62.001 212,70.001 234.001,70.001 234.001,285.001 70.001,285.001 70.001,263.002 
		62.001,263.002 62.001,293.001 242.001,293.001 242.001,62.001 	"/>
	<g>
		<defs>
			<rect id="SVGID_3_" x="2" y="2" width="240" height="291.001"/>
		</defs>
		<clipPath id="SVGID_4_">
			<use xlink:href="#SVGID_3_"  overflow="visible"/>
		</clipPath>
		<path clip-path="url(#SVGID_4_)" fill="#FFFFFF" d="M135.899,47.365c0.387,0.363,0.855,0.726,1.406,1.09
			c0.551,0.363,1.169,0.688,1.855,0.975c0.685,0.287,1.429,0.513,2.232,0.677c0.803,0.164,1.661,0.246,2.575,0.246
			c1.196,0,2.262-0.161,3.2-0.483c0.937-0.323,1.722-0.765,2.355-1.328c0.633-0.562,1.113-1.204,1.442-1.924
			c0.328-0.721,0.492-1.48,0.492-2.277c0-1.429-0.422-2.613-1.266-3.55c-0.844-0.938-2.238-1.682-4.183-2.233l-2.04-0.58
			c-0.703-0.188-1.239-0.41-1.608-0.663c-0.369-0.253-0.554-0.586-0.554-0.999c0-0.389,0.211-0.722,0.633-0.999
			c0.422-0.276,1.014-0.415,1.776-0.415c0.82,0,1.637,0.156,2.452,0.466c0.814,0.311,1.52,0.684,2.118,1.118l2.531-3.219
			c-0.727-0.633-1.72-1.201-2.979-1.705c-1.26-0.504-2.693-0.756-4.298-0.756c-1.125,0-2.145,0.158-3.059,0.475
			c-0.914,0.316-1.69,0.744-2.329,1.283c-0.639,0.539-1.131,1.163-1.476,1.872c-0.346,0.709-0.519,1.456-0.519,2.241
			c0,0.985,0.179,1.814,0.536,2.488c0.357,0.674,0.826,1.245,1.406,1.713c0.58,0.469,1.216,0.847,1.908,1.134
			c0.691,0.287,1.376,0.513,2.056,0.677l1.371,0.369c1.582,0.41,2.373,0.984,2.373,1.723c0,0.433-0.205,0.788-0.615,1.063
			c-0.41,0.276-0.973,0.413-1.687,0.413c-0.985,0-1.958-0.223-2.918-0.669c-0.961-0.446-1.788-0.98-2.479-1.602L135.899,47.365z
			 M127.718,24.68c-0.386,0.158-0.726,0.372-1.019,0.642c-0.293,0.269-0.525,0.589-0.695,0.958c-0.17,0.369-0.254,0.764-0.254,1.186
			c0,0.457,0.076,0.862,0.228,1.213c0.152,0.352,0.354,0.645,0.606,0.879c0.252,0.235,0.545,0.413,0.879,0.536
			c0.334,0.123,0.689,0.185,1.064,0.185c0.222,0,0.433-0.027,0.633-0.079c0.199-0.053,0.363-0.138,0.492-0.255
			c-0.035,0.211-0.109,0.437-0.22,0.677c-0.111,0.24-0.284,0.483-0.518,0.729c-0.235,0.246-0.548,0.481-0.941,0.703
			c-0.393,0.223-0.894,0.422-1.503,0.598l-0.492,0.14l0.615,1.846c1.125-0.129,2.066-0.404,2.822-0.826
			c0.755-0.422,1.365-0.923,1.828-1.503c0.462-0.58,0.791-1.207,0.984-1.881c0.193-0.674,0.29-1.327,0.29-1.96
			c0-0.562-0.085-1.087-0.255-1.573c-0.17-0.486-0.41-0.911-0.72-1.274c-0.311-0.364-0.686-0.651-1.125-0.862
			c-0.44-0.211-0.935-0.316-1.486-0.316C128.509,24.443,128.105,24.522,127.718,24.68 M121.119,30.841h-0.72
			c-0.61,0-1.178,0.071-1.705,0.211c-0.528,0.141-1.002,0.325-1.424,0.554c-0.422,0.228-0.791,0.489-1.108,0.782
			c-0.316,0.293-0.574,0.598-0.773,0.914v-2.127h-4.852v18.826h4.852v-9.14c0-1.008,0.143-1.834,0.431-2.479
			c0.287-0.644,0.67-1.151,1.151-1.52c0.48-0.369,1.034-0.624,1.661-0.765c0.627-0.14,1.286-0.211,1.978-0.211h0.509V30.841z
			 M99.475,36.062c0.703,0.692,1.066,1.535,1.09,2.531H92.97c0.117-0.984,0.536-1.825,1.257-2.522
			c0.72-0.697,1.602-1.046,2.645-1.046C97.903,35.025,98.771,35.371,99.475,36.062 M105.661,42.267V40.07
			c0-1.371-0.223-2.625-0.669-3.762c-0.445-1.136-1.061-2.112-1.847-2.927c-0.786-0.814-1.713-1.447-2.78-1.898
			c-1.068-0.451-2.223-0.677-3.466-0.677c-1.338,0-2.558,0.249-3.66,0.747c-1.103,0.498-2.05,1.187-2.842,2.066
			s-1.408,1.916-1.848,3.111c-0.44,1.195-0.659,2.485-0.659,3.867c0,1.512,0.249,2.871,0.748,4.078
			c0.498,1.207,1.178,2.233,2.041,3.076c0.862,0.844,1.868,1.489,3.018,1.934c1.149,0.445,2.375,0.668,3.677,0.668
			c1.443,0,2.804-0.229,4.083-0.686c1.278-0.457,2.357-1.054,3.237-1.793l-2.337-3.395c-0.693,0.529-1.456,0.931-2.29,1.206
			c-0.834,0.276-1.608,0.414-2.324,0.414c-0.623,0-1.21-0.094-1.762-0.282c-0.552-0.189-1.039-0.45-1.462-0.786
			c-0.422-0.336-0.772-0.739-1.047-1.21c-0.276-0.471-0.455-0.989-0.537-1.554H105.661z M84.051,30.841H83.33
			c-0.609,0-1.178,0.071-1.705,0.211c-0.527,0.141-1.002,0.325-1.424,0.554c-0.422,0.228-0.791,0.489-1.107,0.782
			c-0.317,0.293-0.575,0.598-0.774,0.914v-2.127h-4.851v18.826h4.851v-9.14c0-1.008,0.144-1.834,0.431-2.479
			c0.287-0.644,0.671-1.151,1.151-1.52c0.481-0.369,1.034-0.624,1.661-0.765c0.627-0.14,1.286-0.211,1.978-0.211h0.51V30.841z
			 M64.902,49.659c0.539,0.369,1.254,0.6,2.145,0.694l2.197-3.48c-0.504-0.223-0.9-0.466-1.187-0.73
			c-0.287-0.264-0.43-0.671-0.43-1.222v-7.734c0-1.277-0.229-2.329-0.686-3.155s-1.046-1.48-1.766-1.96
			c-0.721-0.481-1.524-0.812-2.409-0.993c-0.885-0.182-1.76-0.273-2.628-0.273c-1.418,0-2.786,0.193-4.104,0.58
			c-1.318,0.387-2.517,0.879-3.595,1.477l1.899,3.709c0.292-0.141,0.632-0.302,1.019-0.484c0.387-0.181,0.806-0.342,1.257-0.483
			s0.923-0.266,1.415-0.378c0.492-0.111,0.978-0.167,1.459-0.167c1.16,0,1.998,0.246,2.514,0.738
			c0.515,0.493,0.773,1.16,0.773,2.004v0.352l-5.414,0.791c-1.652,0.246-2.947,0.85-3.885,1.81
			c-0.937,0.961-1.406,2.198-1.406,3.709c0,0.833,0.17,1.603,0.51,2.312s0.808,1.333,1.406,1.872
			c0.598,0.539,1.292,0.958,2.083,1.257c0.791,0.299,1.655,0.448,2.593,0.448c0.656,0,1.248-0.07,1.775-0.211
			c0.528-0.141,0.987-0.313,1.38-0.518c0.393-0.205,0.732-0.434,1.02-0.686c0.287-0.252,0.53-0.489,0.729-0.712
			C63.917,48.812,64.363,49.29,64.902,49.659 M62.774,41.74v1.898c0,0.868-0.264,1.565-0.793,2.092
			c-0.529,0.527-1.253,0.791-2.169,0.791c-0.87,0-1.529-0.22-1.975-0.659c-0.447-0.44-0.67-0.964-0.67-1.573
			c0-0.551,0.182-0.988,0.546-1.31c0.364-0.322,0.847-0.53,1.446-0.624L62.774,41.74z M26.688,42.478
			c0.545,1.57,1.327,2.942,2.347,4.113c1.019,1.172,2.255,2.092,3.709,2.76c1.453,0.668,3.087,1.002,4.904,1.002
			c1.312,0,2.528-0.167,3.647-0.501s2.127-0.814,3.024-1.441c0.896-0.627,1.667-1.38,2.311-2.259
			c0.645-0.879,1.154-1.863,1.53-2.953l-4.905-1.617c-0.14,0.468-0.363,0.949-0.668,1.441c-0.304,0.492-0.691,0.94-1.16,1.345
			c-0.469,0.404-1.017,0.735-1.643,0.993c-0.627,0.258-1.327,0.387-2.101,0.387c-1.16,0-2.153-0.238-2.979-0.712
			c-0.827-0.475-1.503-1.099-2.031-1.872c-0.527-0.774-0.917-1.656-1.169-2.646c-0.252-0.99-0.378-2.007-0.378-3.05v-0.14
			c0-1.031,0.126-2.042,0.378-3.033c0.252-0.99,0.642-1.874,1.169-2.654c0.528-0.779,1.204-1.406,2.031-1.881
			c0.826-0.474,1.819-0.712,2.979-0.712c0.774,0,1.474,0.129,2.101,0.387c0.626,0.258,1.174,0.589,1.643,0.993
			c0.469,0.404,0.856,0.856,1.16,1.354c0.305,0.498,0.528,0.981,0.668,1.45l4.905-1.635c-0.376-1.09-0.885-2.074-1.53-2.953
			c-0.644-0.879-1.415-1.629-2.311-2.25c-0.897-0.621-1.905-1.101-3.024-1.441s-2.335-0.51-3.647-0.51
			c-1.817,0-3.451,0.337-4.904,1.011c-1.454,0.674-2.69,1.593-3.709,2.759c-1.02,1.167-1.802,2.538-2.347,4.114
			c-0.545,1.576-0.817,3.266-0.817,5.071C25.871,39.215,26.143,40.908,26.688,42.478"/>
	</g>
</g>
</svg>
