<?xml version="1.0" encoding="utf-8"?>
<!-- Generator: Adobe Illustrator 17.1.0, SVG Export Plug-In . SVG Version: 6.00 Build 0)  -->
<!DOCTYPE svg PUBLIC "-//W3C//DTD SVG 1.1//EN" "http://www.w3.org/Graphics/SVG/1.1/DTD/svg11.dtd">
<svg version="1.1" id="Layer_1" xmlns="http://www.w3.org/2000/svg" xmlns:xlink="http://www.w3.org/1999/xlink" x="0px" y="0px"
	 viewBox="0 0 244 295" enable-background="new 0 0 244 295" xml:space="preserve">
<g>
	<text transform="matrix(1 0 0 1 26.4993 51.707)"><tspan x="0" y="0" fill="#FFFFFF" font-family="'GDSTransport-Bold'" font-size="36" letter-spacing="1">Ca</tspan><tspan x="46.805" y="0" fill="#FFFFFF" font-family="'GDSTransport-Bold'" font-size="36" letter-spacing="1">rer</tspan><tspan x="99.28" y="0" fill="#FFFFFF" font-family="'GDSTransport-Bold'" font-size="36" letter-spacing="1">’</tspan><tspan x="110.59" y="0" fill="#FFFFFF" font-family="'GDSTransport-Bold'" font-size="36">s</tspan></text>
	<g>
		<defs>
			<rect id="SVGID_1_" x="-5.001" y="-3.001" width="249" height="298.001"/>
		</defs>
		<clipPath id="SVGID_2_">
			<use xlink:href="#SVGID_1_"  overflow="visible"/>
		</clipPath>
		
			<rect x="7.749" y="7.75" clip-path="url(#SVGID_2_)" fill="none" stroke="#FFFFFF" stroke-width="7.5" stroke-miterlimit="10" width="172.5" height="223.5"/>
	</g>
	<polygon fill="#FFFFFF" points="33.999,265 33.999,235 41.999,235 41.999,257 205.999,257 205.999,42 183.999,42 183.999,34 
		213.999,34 213.999,265 	"/>
	<polygon fill="#FFFFFF" points="213.999,64 213.999,72 236,72 236,287 72,287 72,265.001 64,265.001 64,295 244,295 244,64 	"/>
</g>
</svg>
