<?xml version="1.0" encoding="utf-8"?>
<!-- Generator: Adobe Illustrator 18.0.0, SVG Export Plug-In . SVG Version: 6.00 Build 0)  -->
<!DOCTYPE svg PUBLIC "-//W3C//DTD SVG 1.1//EN" "http://www.w3.org/Graphics/SVG/1.1/DTD/svg11.dtd">
<svg version="1.1" id="Layer_1" xmlns="http://www.w3.org/2000/svg" xmlns:xlink="http://www.w3.org/1999/xlink" x="0px" y="0px"
	 viewBox="0 0 800 800" enable-background="new 0 0 800 800" xml:space="preserve">
<g>
	<g>
		<defs>
			<rect id="SVGID_1_" x="74.6" y="5.4" width="650.8" height="789.2"/>
		</defs>
		<clipPath id="SVGID_2_">
			<use xlink:href="#SVGID_1_"  overflow="visible"/>
		</clipPath>
		
			<rect x="84.7" y="15.6" clip-path="url(#SVGID_2_)" fill="none" stroke="#FFFFFF" stroke-width="19" stroke-miterlimit="10" width="467.8" height="606.1"/>
	</g>
</g>
<polygon fill="#FFFFFF" points="155.9,713.2 155.9,631.9 177.6,631.9 177.6,691.5 622.4,691.5 622.4,108.5 562.7,108.5 562.7,86.8 
	644.1,86.8 644.1,713.2 "/>
<polygon fill="#FFFFFF" points="644.1,168.1 644.1,189.8 703.7,189.8 703.7,772.9 259,772.9 259,713.2 237.3,713.2 237.3,794.6 
	725.4,794.6 725.4,168.1 "/>
<g>
	<path fill="#FFFFFF" d="M136.9,101.3c0-5.1,0.8-10,2.3-14.4s3.8-8.4,6.7-11.7c2.9-3.3,6.4-5.9,10.6-7.9c4.1-1.9,8.8-2.9,14-2.9
		c3.7,0,7.2,0.5,10.4,1.5c3.2,1,6.1,2.3,8.6,4.1c2.6,1.8,4.7,3.9,6.6,6.4c1.8,2.5,3.3,5.3,4.4,8.4l-14,4.7c-0.4-1.3-1-2.7-1.9-4.1
		c-0.9-1.4-2-2.7-3.3-3.9c-1.3-1.2-2.9-2.1-4.7-2.8c-1.8-0.7-3.8-1.1-6-1.1c-3.3,0-6.1,0.7-8.5,2s-4.3,3.1-5.8,5.4
		c-1.5,2.2-2.6,4.7-3.3,7.6c-0.7,2.8-1.1,5.7-1.1,8.6v0.4c0,3,0.4,5.9,1.1,8.7c0.7,2.8,1.8,5.3,3.3,7.5c1.5,2.2,3.4,4,5.8,5.3
		s5.2,2,8.5,2c2.2,0,4.2-0.4,6-1.1c1.8-0.7,3.3-1.7,4.7-2.8c1.3-1.2,2.4-2.4,3.3-3.8c0.9-1.4,1.5-2.8,1.9-4.1l14,4.6
		c-1.1,3.1-2.5,5.9-4.4,8.4c-1.8,2.5-4,4.6-6.6,6.4c-2.6,1.8-5.4,3.2-8.6,4.1c-3.2,1-6.6,1.4-10.4,1.4c-5.2,0-9.8-1-14-2.9
		c-4.1-1.9-7.7-4.5-10.6-7.9c-2.9-3.3-5.1-7.2-6.7-11.7C137.7,111.3,136.9,106.5,136.9,101.3z"/>
	<path fill="#FFFFFF" d="M210.9,69.6c0-1.1,0.2-2.2,0.7-3.2c0.4-1,1-1.9,1.8-2.7c0.8-0.8,1.6-1.3,2.6-1.8c1-0.4,2.1-0.7,3.3-0.7
		c1.1,0,2.2,0.2,3.2,0.7c1,0.4,1.9,1,2.7,1.8s1.3,1.6,1.8,2.7c0.4,1,0.7,2.1,0.7,3.2c0,1.2-0.2,2.3-0.7,3.3c-0.4,1-1,1.9-1.8,2.6
		c-0.8,0.8-1.6,1.3-2.7,1.8c-1,0.4-2.1,0.7-3.2,0.7c-1.2,0-2.3-0.2-3.3-0.7c-1-0.4-1.9-1-2.6-1.8c-0.8-0.8-1.3-1.6-1.8-2.6
		C211.2,71.8,210.9,70.7,210.9,69.6z M226.2,137.2h-13.8V83.6h13.8V137.2z"/>
	<path fill="#FFFFFF" d="M252.6,137.2l-16.4-53.6h15.4l9.6,36.9l9.9-36.9h15.2l-16.3,53.6H252.6z"/>
	<path fill="#FFFFFF" d="M294.7,69.6c0-1.1,0.2-2.2,0.7-3.2c0.4-1,1-1.9,1.8-2.7c0.8-0.8,1.6-1.3,2.6-1.8c1-0.4,2.1-0.7,3.3-0.7
		c1.1,0,2.2,0.2,3.2,0.7c1,0.4,1.9,1,2.7,1.8s1.3,1.6,1.8,2.7c0.4,1,0.7,2.1,0.7,3.2c0,1.2-0.2,2.3-0.7,3.3c-0.4,1-1,1.9-1.8,2.6
		c-0.8,0.8-1.6,1.3-2.7,1.8c-1,0.4-2.1,0.7-3.2,0.7c-1.2,0-2.3-0.2-3.3-0.7c-1-0.4-1.9-1-2.6-1.8c-0.8-0.8-1.3-1.6-1.8-2.6
		C294.9,71.8,294.7,70.7,294.7,69.6z M310,137.2h-13.8V83.6H310V137.2z"/>
	<path fill="#FFFFFF" d="M324.7,65.5h13.8v57.2c0,1.1,0.3,2,1,2.6c0.7,0.6,1.7,0.9,3.1,0.9c0.7,0,1.2,0,1.7-0.1
		c0.5-0.1,1.1-0.2,1.9-0.4l1.1,11.8c-0.9,0.1-1.9,0.3-3,0.4c-0.9,0.1-1.9,0.2-3.1,0.3c-1.2,0.1-2.4,0.1-3.7,0.1
		c-2,0-3.7-0.2-5.3-0.8c-1.6-0.5-2.9-1.2-4-2.2c-1.1-1-2-2.2-2.6-3.7c-0.6-1.5-0.9-3.2-0.9-5.1V65.5z"/>
	<path fill="#FFFFFF" d="M150.5,200.7c0,1.7,0.2,3.5,0.7,5.2c0.5,1.8,1.2,3.3,2.2,4.7c1,1.4,2.2,2.5,3.7,3.4
		c1.5,0.9,3.3,1.3,5.4,1.3c1.4,0,2.6-0.2,3.7-0.6c1.1-0.4,2.1-0.9,3-1.5c0.9-0.7,1.7-1.4,2.4-2.3c0.7-0.9,1.3-1.8,1.8-2.9l12.1,6.3
		c-0.9,2.1-2.1,4-3.6,5.7c-1.5,1.7-3.3,3.2-5.3,4.4c-2,1.2-4.2,2.1-6.7,2.8c-2.4,0.7-5,1-7.8,1c-3.8,0-7.2-0.7-10.4-2.1
		c-3.2-1.4-5.9-3.4-8.2-5.8c-2.3-2.5-4.1-5.4-5.4-8.8c-1.3-3.4-2-7.1-2-11c0-3.9,0.7-7.6,2-11c1.3-3.4,3.1-6.4,5.4-8.9
		c2.3-2.5,5-4.5,8.2-5.9c3.2-1.4,6.6-2.1,10.4-2.1c2.7,0,5.3,0.3,7.8,1c2.4,0.7,4.7,1.6,6.7,2.8c2,1.2,3.8,2.7,5.3,4.4
		c1.5,1.7,2.7,3.6,3.6,5.7l-12.1,6.3c-0.5-1-1.1-2-1.8-2.9c-0.7-0.9-1.5-1.7-2.4-2.3c-0.9-0.7-1.9-1.2-3-1.6
		c-1.1-0.4-2.4-0.6-3.7-0.6c-2.1,0-3.9,0.4-5.4,1.3c-1.5,0.9-2.8,2-3.7,3.5c-1,1.4-1.7,3-2.2,4.8c-0.5,1.8-0.7,3.5-0.7,5.3V200.7z"
		/>
	<path fill="#FFFFFF" d="M196.8,155.5h13.8v57.2c0,1.1,0.3,2,1,2.6c0.7,0.6,1.7,0.9,3.1,0.9c0.7,0,1.2,0,1.7-0.1
		c0.5-0.1,1.1-0.2,1.9-0.4l1.1,11.8c-0.9,0.1-1.9,0.3-3,0.4c-0.9,0.1-1.9,0.2-3.1,0.3c-1.2,0.1-2.4,0.1-3.7,0.1
		c-2,0-3.7-0.2-5.3-0.8c-1.6-0.5-2.9-1.2-4-2.2c-1.1-1-2-2.2-2.6-3.7c-0.6-1.5-0.9-3.2-0.9-5.1V155.5z"/>
	<path fill="#FFFFFF" d="M260,222.2c-0.6,0.6-1.3,1.3-2.1,2c-0.8,0.7-1.8,1.4-2.9,2c-1.1,0.6-2.4,1.1-3.9,1.5
		c-1.5,0.4-3.2,0.6-5.1,0.6c-2.7,0-5.1-0.4-7.4-1.3s-4.2-2-5.9-3.6c-1.7-1.5-3-3.3-4-5.3c-1-2-1.5-4.2-1.5-6.6c0-4.3,1.3-7.8,4-10.6
		c2.7-2.7,6.4-4.5,11.1-5.2l15.4-2.3v-1c0-2.4-0.7-4.3-2.2-5.7c-1.5-1.4-3.9-2.1-7.2-2.1c-1.4,0-2.8,0.2-4.2,0.5
		c-1.4,0.3-2.7,0.7-4,1.1c-1.3,0.4-2.5,0.9-3.6,1.4c-1.1,0.5-2.1,1-2.9,1.4l-5.4-10.6c3.1-1.7,6.5-3.1,10.2-4.2s7.6-1.7,11.7-1.7
		c2.5,0,5,0.3,7.5,0.8c2.5,0.5,4.8,1.5,6.9,2.8c2.1,1.4,3.7,3.2,5,5.6c1.3,2.4,2,5.3,2,9v22c0,1.6,0.4,2.7,1.2,3.5
		c0.8,0.8,1.9,1.4,3.4,2.1l-6.3,9.9c-2.5-0.3-4.6-0.9-6.1-2C262.2,225.2,261,223.9,260,222.2z M247.4,205.5
		c-1.7,0.3-3.1,0.9-4.1,1.8c-1,0.9-1.6,2.2-1.6,3.7c0,1.7,0.6,3.2,1.9,4.5c1.3,1.3,3.1,1.9,5.6,1.9c2.6,0,4.7-0.8,6.2-2.3
		c1.5-1.5,2.3-3.5,2.3-6v-5.4L247.4,205.5z"/>
	<path fill="#FFFFFF" d="M284.7,159.6c0-1.1,0.2-2.2,0.7-3.2c0.4-1,1-1.9,1.8-2.7c0.8-0.8,1.6-1.3,2.6-1.8c1-0.4,2.1-0.7,3.3-0.7
		c1.1,0,2.2,0.2,3.2,0.7c1,0.4,1.9,1,2.7,1.8s1.3,1.6,1.8,2.7c0.4,1,0.7,2.1,0.7,3.2c0,1.2-0.2,2.3-0.7,3.3c-0.4,1-1,1.9-1.8,2.6
		c-0.8,0.8-1.6,1.3-2.7,1.8c-1,0.4-2.1,0.7-3.2,0.7c-1.2,0-2.3-0.2-3.3-0.7c-1-0.4-1.9-1-2.6-1.8c-0.8-0.8-1.3-1.6-1.8-2.6
		C284.9,161.8,284.7,160.7,284.7,159.6z M299.9,227.2h-13.8v-53.6h13.8V227.2z"/>
	<path fill="#FFFFFF" d="M360.1,227.2h-13.8v-31.2c0-1.9-0.2-3.5-0.6-4.8c-0.4-1.3-1-2.4-1.7-3.2c-0.7-0.8-1.6-1.4-2.6-1.8
		c-1-0.4-2-0.5-3.2-0.5c-1.3,0-2.6,0.2-3.7,0.7c-1.2,0.5-2.2,1.2-3,2.2c-0.9,1-1.5,2.3-2,3.8c-0.5,1.6-0.7,3.4-0.7,5.5v29.2h-13.8
		v-53.6h13.8v4.7c1.8-2,3.8-3.4,6.2-4.4c2.3-0.9,4.9-1.4,7.6-1.4c2.8,0,5.4,0.6,7.8,1.7c2.4,1.1,4.4,3,6,5.6c0.9-1.3,2-2.5,3.2-3.4
		c1.2-0.9,2.5-1.7,3.9-2.3c1.4-0.6,2.9-1,4.4-1.3c1.5-0.3,3.1-0.4,4.7-0.4c3,0,5.7,0.5,8,1.5c2.4,1,4.4,2.3,6,4
		c1.6,1.7,2.9,3.6,3.8,5.8c0.9,2.2,1.3,4.5,1.3,6.9v36.6h-14v-31.2c0-1.9-0.2-3.5-0.6-4.8c-0.4-1.3-1-2.4-1.7-3.2
		c-0.7-0.8-1.6-1.4-2.6-1.8c-1-0.4-2-0.5-3.2-0.5c-1.3,0-2.6,0.2-3.7,0.7c-1.1,0.5-2.1,1.2-3,2.2c-0.9,1-1.5,2.3-2,3.8
		s-0.7,3.4-0.7,5.5V227.2z"/>
	<path fill="#FFFFFF" d="M410,210.1c2,1.8,4.3,3.3,7.1,4.6c2.7,1.3,5.5,1.9,8.3,1.9c2,0,3.6-0.4,4.8-1.2c1.2-0.8,1.8-1.8,1.8-3
		c0-2.1-2.3-3.7-6.8-4.9l-3.9-1.1c-1.9-0.5-3.9-1.1-5.9-1.9c-2-0.8-3.8-1.9-5.4-3.2c-1.7-1.3-3-3-4-4.9c-1-1.9-1.5-4.3-1.5-7.1
		c0-2.2,0.5-4.4,1.5-6.4c1-2,2.4-3.8,4.2-5.3c1.8-1.5,4-2.8,6.6-3.7c2.6-0.9,5.5-1.4,8.7-1.4c4.6,0,8.7,0.7,12.2,2.2
		c3.6,1.4,6.4,3.1,8.5,4.9l-7.2,9.2c-1.7-1.2-3.7-2.3-6-3.2s-4.6-1.3-7-1.3c-2.2,0-3.9,0.4-5.1,1.2c-1.2,0.8-1.8,1.7-1.8,2.8
		c0,1.2,0.5,2.1,1.6,2.8c1.1,0.7,2.6,1.4,4.6,1.9l5.8,1.7c5.5,1.6,9.5,3.7,11.9,6.4c2.4,2.7,3.6,6,3.6,10.1c0,2.3-0.5,4.4-1.4,6.5
		c-0.9,2.1-2.3,3.9-4.1,5.5c-1.8,1.6-4,2.9-6.7,3.8s-5.7,1.4-9.1,1.4c-2.6,0-5-0.2-7.3-0.7c-2.3-0.5-4.4-1.1-6.4-1.9
		c-2-0.8-3.7-1.7-5.3-2.8c-1.6-1-2.9-2.1-4-3.1L410,210.1z"/>
</g>
</svg>
