<?xml version="1.0" encoding="utf-8"?>
<!-- Generator: Adobe Illustrator 17.1.0, SVG Export Plug-In . SVG Version: 6.00 Build 0)  -->
<!DOCTYPE svg PUBLIC "-//W3C//DTD SVG 1.1//EN" "http://www.w3.org/Graphics/SVG/1.1/DTD/svg11.dtd">
<svg version="1.1" id="Layer_1" xmlns="http://www.w3.org/2000/svg" xmlns:xlink="http://www.w3.org/1999/xlink" x="0px" y="0px"
	 viewBox="0 0 244 295" enable-background="new 0 0 244 295" xml:space="preserve">
<g>
	<defs>
		<rect id="SVGID_1_" x="2" y="2" width="240" height="291"/>
	</defs>
	<clipPath id="SVGID_2_">
		<use xlink:href="#SVGID_1_"  overflow="visible"/>
	</clipPath>
	<path clip-path="url(#SVGID_2_)" fill="#FFFFFF" d="M97.112,52.766h8.789l-4.359-14.203h-0.094L97.112,52.766z M107.729,58.766
		H95.284L93.386,65h-7.219l10.992-33.609h8.93L117.246,65h-7.595L107.729,58.766z M77.439,42.43c0-0.797-0.14-1.502-0.421-2.121
		c-0.282-0.616-0.689-1.143-1.219-1.582c-0.532-0.436-1.172-0.768-1.922-0.997c-0.75-0.224-1.594-0.339-2.531-0.339h-4.805V47.68
		h4.805c0.937,0,1.781-0.112,2.531-0.34c0.75-0.225,1.39-0.557,1.922-0.996c0.53-0.436,0.937-0.963,1.219-1.582
		c0.281-0.616,0.421-1.324,0.421-2.121V42.43z M59.744,31.391h13.43c1.734,0,3.3,0.287,4.699,0.855
		c1.398,0.572,2.581,1.354,3.551,2.344c0.968,0.994,1.714,2.168,2.238,3.527c0.523,1.36,0.785,2.836,0.785,4.43
		c0,1.594-0.286,3.07-0.855,4.43c-0.571,1.359-1.376,2.537-2.414,3.527c-1.04,0.994-2.285,1.769-3.739,2.332
		c-1.453,0.562-3.055,0.844-4.804,0.844h-6.094V65h-6.797V31.391z M33.016,31.391h6.797v27.328h13.312V65H33.016V31.391z M242,293
		V62h-30v8h22v215H70v-22h-8v30H242z M32,263v-30h8v22h164V40h-22v-8h30v231H32z M174,225H10V10h164V225z M2,233h180V2H2V233z"/>
</g>
</svg>
