<?xml version="1.0" encoding="utf-8"?>
<!-- Generator: Adobe Illustrator 18.0.0, SVG Export Plug-In . SVG Version: 6.00 Build 0)  -->
<!DOCTYPE svg PUBLIC "-//W3C//DTD SVG 1.1//EN" "http://www.w3.org/Graphics/SVG/1.1/DTD/svg11.dtd">
<svg version="1.1" id="Layer_1" xmlns="http://www.w3.org/2000/svg" xmlns:xlink="http://www.w3.org/1999/xlink" x="0px" y="0px"
	 viewBox="0 0 800 800" enable-background="new 0 0 800 800" xml:space="preserve">
<g>
	<g>
		<g>
			<defs>
				<rect id="SVGID_1_" x="74.6" y="5.4" width="650.8" height="789.2"/>
			</defs>
			<clipPath id="SVGID_2_">
				<use xlink:href="#SVGID_1_"  overflow="visible"/>
			</clipPath>
			
				<rect x="84.7" y="15.6" clip-path="url(#SVGID_2_)" fill="none" stroke="#FFFFFF" stroke-width="20" stroke-miterlimit="10" width="467.8" height="606.1"/>
		</g>
	</g>
</g>
<polygon fill="#FFFFFF" points="155.9,713.2 155.9,631.9 177.6,631.9 177.6,691.5 622.4,691.5 622.4,108.5 562.7,108.5 562.7,86.8 
	644.1,86.8 644.1,713.2 "/>
<polygon fill="#FFFFFF" points="644.1,168.1 644.1,189.8 703.7,189.8 703.7,772.9 259,772.9 259,713.2 237.3,713.2 237.3,794.6 
	725.4,794.6 725.4,168.1 "/>
<g>
	<path fill="#FFFFFF" d="M140.5,65.5h28.7c3.7,0,7,0.6,10,1.8c3,1.2,5.5,2.9,7.6,5s3.7,4.6,4.8,7.5s1.7,6.1,1.7,9.5
		s-0.6,6.6-1.8,9.5s-2.9,5.4-5.2,7.5c-2.2,2.1-4.9,3.8-8,5s-6.5,1.8-10.3,1.8h-13v24.2h-14.5V65.5z M178.3,89c0-1.7-0.3-3.2-0.9-4.5
		c-0.6-1.3-1.5-2.4-2.6-3.4c-1.1-0.9-2.5-1.6-4.1-2.1s-3.4-0.7-5.4-0.7H155v22h10.3c2,0,3.8-0.2,5.4-0.7c1.6-0.5,3-1.2,4.1-2.1
		s2-2.1,2.6-3.4s0.9-2.8,0.9-4.5V89z"/>
	<path fill="#FFFFFF" d="M234.2,97h-1.5c-2,0-3.8,0.2-5.6,0.6s-3.4,1.1-4.7,2.2c-1.4,1.1-2.5,2.5-3.3,4.3s-1.2,4.2-1.2,7.1v26h-13.8
		V83.6h13.8v6.1c0.6-0.9,1.3-1.8,2.2-2.6c0.9-0.8,2-1.6,3.2-2.2c1.2-0.7,2.6-1.2,4.1-1.6s3.1-0.6,4.9-0.6h2.1V97H234.2z"/>
	<path fill="#FFFFFF" d="M244.5,69.6c0-1.1,0.2-2.2,0.7-3.2c0.4-1,1-1.9,1.8-2.7s1.6-1.3,2.6-1.8c1-0.4,2.1-0.7,3.3-0.7
		c1.1,0,2.2,0.2,3.2,0.7c1,0.4,1.9,1,2.7,1.8s1.3,1.6,1.8,2.7c0.4,1,0.7,2.1,0.7,3.2c0,1.2-0.2,2.3-0.7,3.3c-0.4,1-1,1.9-1.8,2.6
		c-0.8,0.8-1.6,1.3-2.7,1.8c-1,0.4-2.1,0.7-3.2,0.7c-1.2,0-2.3-0.2-3.3-0.7c-1-0.4-1.9-1-2.6-1.8c-0.8-0.8-1.3-1.6-1.8-2.6
		C244.7,71.8,244.5,70.7,244.5,69.6z M259.7,137.2h-13.8V83.6h13.8V137.2z"/>
	<path fill="#FFFFFF" d="M278.5,120.1c2,1.8,4.3,3.3,7.1,4.6c2.7,1.3,5.5,1.9,8.3,1.9c2,0,3.6-0.4,4.8-1.2c1.2-0.8,1.8-1.8,1.8-3
		c0-2.1-2.3-3.7-6.8-4.9l-3.9-1.1c-1.9-0.5-3.9-1.1-5.9-1.9s-3.8-1.9-5.4-3.2c-1.7-1.3-3-3-4-4.9s-1.5-4.3-1.5-7.1
		c0-2.2,0.5-4.4,1.5-6.4s2.4-3.8,4.2-5.3c1.8-1.5,4-2.8,6.6-3.7c2.6-0.9,5.5-1.4,8.7-1.4c4.6,0,8.7,0.7,12.2,2.2
		c3.6,1.4,6.4,3.1,8.5,4.9l-7.2,9.2c-1.7-1.2-3.7-2.3-6-3.2c-2.3-0.9-4.6-1.3-7-1.3c-2.2,0-3.9,0.4-5.1,1.2
		c-1.2,0.8-1.8,1.7-1.8,2.8c0,1.2,0.5,2.1,1.6,2.8c1.1,0.7,2.6,1.4,4.6,1.9l5.8,1.7c5.5,1.6,9.5,3.7,11.9,6.4
		c2.4,2.7,3.6,6,3.6,10.1c0,2.3-0.5,4.4-1.4,6.5c-0.9,2.1-2.3,3.9-4.1,5.5c-1.8,1.6-4,2.9-6.7,3.8c-2.7,0.9-5.7,1.4-9.1,1.4
		c-2.6,0-5-0.2-7.3-0.7s-4.4-1.1-6.4-1.9c-2-0.8-3.7-1.7-5.3-2.8c-1.6-1-2.9-2.1-4-3.1L278.5,120.1z"/>
	<path fill="#FFFFFF" d="M350.7,82.6c4,0,7.6,0.7,10.8,2.1c3.2,1.4,6,3.4,8.3,5.9s4.1,5.5,5.3,8.9s1.9,7.1,1.9,11
		c0,4-0.6,7.7-1.9,11c-1.3,3.4-3.1,6.3-5.4,8.8s-5.1,4.4-8.3,5.8c-3.2,1.4-6.8,2.1-10.8,2.1s-7.6-0.7-10.8-2.1
		c-3.2-1.4-6-3.4-8.3-5.8c-2.3-2.5-4.1-5.4-5.4-8.8s-1.9-7.1-1.9-11s0.6-7.6,1.9-11s3-6.4,5.3-8.9s5.1-4.5,8.3-5.9
		C343.1,83.3,346.7,82.6,350.7,82.6z M350.7,125.4c2,0,3.7-0.4,5.2-1.1s2.8-1.8,3.8-3.1c1-1.3,1.8-2.9,2.4-4.7
		c0.5-1.8,0.8-3.8,0.8-6v-0.4c0-2.2-0.3-4.2-0.8-6s-1.3-3.4-2.4-4.7c-1-1.3-2.3-2.3-3.8-3.1c-1.5-0.7-3.3-1.1-5.2-1.1
		c-2,0-3.7,0.4-5.2,1.1s-2.8,1.8-3.8,3.1c-1,1.3-1.8,2.9-2.4,4.7c-0.5,1.8-0.8,3.8-0.8,6v0.4c0,2.2,0.3,4.2,0.8,6s1.3,3.4,2.4,4.7
		c1,1.3,2.3,2.3,3.8,3.1S348.7,125.4,350.7,125.4z"/>
	<path fill="#FFFFFF" d="M389.2,83.6H403v4.6c0.7-0.7,1.6-1.4,2.5-2.1s1.9-1.3,3-1.8s2.3-0.9,3.7-1.3c1.4-0.3,2.8-0.5,4.5-0.5
		c2.9,0,5.5,0.5,7.8,1.4c2.3,1,4.2,2.3,5.8,3.9c1.6,1.7,2.8,3.6,3.6,5.9c0.8,2.2,1.3,4.7,1.3,7.3v36.2h-13.8V106
		c0-1.9-0.2-3.5-0.7-4.8c-0.4-1.3-1-2.4-1.8-3.2c-0.8-0.8-1.6-1.4-2.7-1.8c-1-0.4-2.1-0.6-3.3-0.6c-1.4,0-2.7,0.2-3.9,0.8
		c-1.2,0.5-2.3,1.3-3.2,2.3c-0.9,1-1.6,2.3-2.1,3.8s-0.8,3.3-0.8,5.4v29.3h-13.8V83.6H389.2z"/>
	<path fill="#FFFFFF" d="M150.4,227.2L134,173.6h15.4l9.6,36.9l9.9-36.9H184l-16.3,53.6L150.4,227.2L150.4,227.2z"/>
	<path fill="#FFFFFF" d="M192.5,159.6c0-1.1,0.2-2.2,0.7-3.2c0.4-1,1-1.9,1.8-2.7s1.6-1.3,2.6-1.8c1-0.4,2.1-0.7,3.3-0.7
		c1.1,0,2.2,0.2,3.2,0.7c1,0.4,1.9,1,2.7,1.8s1.3,1.6,1.8,2.7c0.4,1,0.7,2.1,0.7,3.2c0,1.2-0.2,2.3-0.7,3.3c-0.4,1-1,1.9-1.8,2.6
		c-0.8,0.8-1.6,1.3-2.7,1.8c-1,0.4-2.1,0.7-3.2,0.7c-1.2,0-2.3-0.2-3.3-0.7c-1-0.4-1.9-1-2.6-1.8c-0.8-0.8-1.3-1.6-1.8-2.6
		C192.7,161.8,192.5,160.7,192.5,159.6z M207.7,227.2h-13.8v-53.6h13.8V227.2z"/>
	<path fill="#FFFFFF" d="M226.5,210.1c2,1.8,4.3,3.3,7.1,4.6c2.7,1.3,5.5,1.9,8.3,1.9c2,0,3.6-0.4,4.8-1.2s1.8-1.8,1.8-3
		c0-2.1-2.3-3.7-6.8-4.9l-3.9-1.1c-1.9-0.5-3.9-1.1-5.9-1.9c-2-0.8-3.8-1.9-5.4-3.2c-1.7-1.3-3-3-4-4.9s-1.5-4.3-1.5-7.1
		c0-2.2,0.5-4.4,1.5-6.4s2.4-3.8,4.2-5.3s4-2.8,6.6-3.7s5.5-1.4,8.7-1.4c4.6,0,8.7,0.7,12.2,2.2c3.6,1.4,6.4,3.1,8.5,4.9l-7.2,9.2
		c-1.7-1.2-3.7-2.3-6-3.2s-4.6-1.3-7-1.3c-2.2,0-3.9,0.4-5.1,1.2c-1.2,0.8-1.8,1.7-1.8,2.8c0,1.2,0.5,2.1,1.6,2.8s2.6,1.4,4.6,1.9
		l5.8,1.7c5.5,1.6,9.5,3.7,11.9,6.4s3.6,6,3.6,10.1c0,2.3-0.5,4.4-1.4,6.5s-2.3,3.9-4.1,5.5c-1.8,1.6-4,2.9-6.7,3.8
		c-2.7,0.9-5.7,1.4-9.1,1.4c-2.6,0-5-0.2-7.3-0.7s-4.4-1.1-6.4-1.9c-2-0.8-3.7-1.7-5.3-2.8c-1.6-1-2.9-2.1-4-3.1L226.5,210.1z"/>
	<path fill="#FFFFFF" d="M273.7,159.6c0-1.1,0.2-2.2,0.7-3.2c0.4-1,1-1.9,1.8-2.7s1.6-1.3,2.6-1.8c1-0.4,2.1-0.7,3.3-0.7
		c1.1,0,2.2,0.2,3.2,0.7c1,0.4,1.9,1,2.7,1.8s1.3,1.6,1.8,2.7c0.4,1,0.7,2.1,0.7,3.2c0,1.2-0.2,2.3-0.7,3.3c-0.4,1-1,1.9-1.8,2.6
		c-0.8,0.8-1.6,1.3-2.7,1.8c-1,0.4-2.1,0.7-3.2,0.7c-1.2,0-2.3-0.2-3.3-0.7c-1-0.4-1.9-1-2.6-1.8c-0.8-0.8-1.3-1.6-1.8-2.6
		C273.9,161.8,273.7,160.7,273.7,159.6z M288.9,227.2h-13.8v-53.6h13.8V227.2z"/>
	<path fill="#FFFFFF" d="M323.7,211.3c0,0.6,0.1,1.2,0.2,1.8c0.2,0.6,0.5,1.1,0.9,1.5s1,0.7,1.8,1c0.8,0.2,1.8,0.4,3,0.4
		c0.5,0,1.1,0,1.7-0.1s1.3-0.1,1.9-0.2c0.6-0.1,1.2-0.1,1.8-0.2c0.6-0.1,1-0.2,1.4-0.3l1.3,12.2c-1.3,0.2-2.7,0.3-4.1,0.5
		c-1.2,0.1-2.5,0.2-4,0.3s-3,0.1-4.5,0.1c-4.8,0-8.5-1.1-11.2-3.3s-4-5.6-4-10.4v-29h-9.7v-12h9.7v-15.2l13.8-3.7v18.9h14.1v12
		h-14.1L323.7,211.3L323.7,211.3z"/>
	<path fill="#FFFFFF" d="M353.3,210.1c2,1.8,4.3,3.3,7.1,4.6c2.7,1.3,5.5,1.9,8.3,1.9c2,0,3.6-0.4,4.8-1.2c1.2-0.8,1.8-1.8,1.8-3
		c0-2.1-2.3-3.7-6.8-4.9l-3.9-1.1c-1.9-0.5-3.9-1.1-5.9-1.9c-2-0.8-3.8-1.9-5.4-3.2c-1.7-1.3-3-3-4-4.9s-1.5-4.3-1.5-7.1
		c0-2.2,0.5-4.4,1.5-6.4s2.4-3.8,4.2-5.3c1.8-1.5,4-2.8,6.6-3.7s5.5-1.4,8.7-1.4c4.6,0,8.7,0.7,12.2,2.2c3.6,1.4,6.4,3.1,8.5,4.9
		l-7.2,9.2c-1.7-1.2-3.7-2.3-6-3.2s-4.6-1.3-7-1.3c-2.2,0-3.9,0.4-5.1,1.2s-1.8,1.7-1.8,2.8c0,1.2,0.5,2.1,1.6,2.8s2.6,1.4,4.6,1.9
		l5.8,1.7c5.5,1.6,9.5,3.7,11.9,6.4s3.6,6,3.6,10.1c0,2.3-0.5,4.4-1.4,6.5s-2.3,3.9-4.1,5.5c-1.8,1.6-4,2.9-6.7,3.8
		c-2.7,0.9-5.7,1.4-9.1,1.4c-2.6,0-5-0.2-7.3-0.7s-4.4-1.1-6.4-1.9c-2-0.8-3.7-1.7-5.3-2.8c-1.6-1-2.9-2.1-4-3.1L353.3,210.1z"/>
</g>
</svg>
