<?xml version="1.0" encoding="utf-8"?>
<!-- Generator: Adobe Illustrator 18.0.0, SVG Export Plug-In . SVG Version: 6.00 Build 0)  -->
<!DOCTYPE svg PUBLIC "-//W3C//DTD SVG 1.1//EN" "http://www.w3.org/Graphics/SVG/1.1/DTD/svg11.dtd">
<svg version="1.1" id="Layer_1" xmlns="http://www.w3.org/2000/svg" xmlns:xlink="http://www.w3.org/1999/xlink" x="0px" y="0px"
	 viewBox="0 0 800 800" enable-background="new 0 0 800 800" xml:space="preserve">
<rect x="72.4" y="74.8" fill="none" stroke="#FFFFFF" stroke-width="20" stroke-miterlimit="10" width="650.3" height="650.3"/>
<g enable-background="new    ">
	<path fill="#FFFFFF" d="M687.2,50.4c0.6,2.8,1.7,8.3-0.4,12.6c-23.3,46.9-58.9,66.5-103.3,128.2c-14.3,20.1-23.3,32.5-32.6,44
		c-43,54.7-84.8,105.3-125.7,160.5c-8.3,11.3-8.9,13.3-7.4,20.7c29.3,79.7,70.4,151.3,103.6,226.4c7,15.9,32.9,30,36.4,47.6
		c1.3,6.5,0.9,9.4-4.3,17.2c-3,4.4-12.8,8.3-20.2,9.8c-13.9,2.8-32.5,0.7-52.5-3c-7.9-1.3-9.1-2-15.5-10.4
		c-46.3-59-65.1-138.9-92.7-205.5c-2.2-6.3-5.2-11.5-8.9-10.7c-2.8,0.6-5.9,4.1-16.1,20.5C298.9,587,250.7,663.8,248,742.2
		c0,4.8,0,9.6-11.3,15.7c-12.9,7.4-10.6,14.6-16.1,15.7c-20.3,4-41.8-2.3-59.5-14.1c-6.6-4.4-6.8-5.4-9-16.5
		c-4.8-24,12.6-52.5,19.7-79.8c2.8-10.2,5.4-16.4,8.5-24.8c33-85.4,91.3-149.8,136.3-223.2c10.2-16.4,10-17.4,8.7-23.8
		c-45-115-58.4-158.5-72.2-227.8c-3.7-18.5,3.7-15.2,1.3-27.2c-0.9-4.6-5.3-12.4-6.4-17.9c-1.1-5.5-1.8-9.2,5.4-16.4
		c5.6-5.9,13-7.4,24-9.6c20.3-4,27.9-4.6,34.2,2.8c10.2,12.4,26.2,20.7,28.1,30c1.7,8.3-3.2,27.5,5.5,71
		c7,35.1,18.2,67.5,31.1,103.4c4.4,12.6,7.9,15.7,12.6,14.8c3.7-0.7,11.5-5.2,18.1-15.1c59.3-88.7,136.1-166.4,190.2-261.7
		c5.7-9.8,6.5-10.9,13-12.2c15.7-3.1,32.3,3.2,49.9,4.5C670.8,30.6,685.9,43.9,687.2,50.4z"/>
</g>
</svg>
